<?xml version="1.0" standalone="no"?>
<!DOCTYPE svg PUBLIC "-//W3C//DTD SVG 1.1//EN" "http://www.w3.org/Graphics/SVG/1.1/DTD/svg11.dtd" >
<svg xmlns="http://www.w3.org/2000/svg">
<metadata></metadata>
<defs>
<font id="mangaregular" horiz-adv-x="1064" >
<font-face units-per-em="2048" ascent="1638" descent="-410" />
<missing-glyph horiz-adv-x="1232" />
<glyph horiz-adv-x="0" />
<glyph unicode="&#xd;" horiz-adv-x="508" />
<glyph unicode=" "  horiz-adv-x="1232" />
<glyph unicode="&#x09;" horiz-adv-x="1232" />
<glyph unicode="&#xa0;" horiz-adv-x="1232" />
<glyph unicode="!" horiz-adv-x="829" d="M0 1200v248l102 2q93 16 105 70h221l-8 -1047h-221v727h-199zM127 166v7q0 50 56 110q59 63 120 67h7q56 0 120 -63q62 -64 66 -121v-3q0 -54 -64 -107q-67 -56 -129 -56q-45 0 -108.5 57.5t-67.5 108.5z" />
<glyph unicode="&#x22;" horiz-adv-x="829" d="M0 1153l131 373l207 -60l-129 -379zM326 1135l131 372l207 -59l-129 -379z" />
<glyph unicode="#" d="M0 463v248h145v141h-145v248h145v88q131 33 248 168v-256h117v254l248 2v-256h137v-248h-137v-141h137v-248h-137v-160h-248v160h-117v-160h-248v160h-145zM393 711h117v141h-117v-141z" />
<glyph unicode="$" d="M0 61v244h616v406l-616 2q57 39 99 109.5t42 135.5v181h-141v247h221q5 -1 10 -1q43 0 62 51q8 43 16 84l197 -2q24 -136 126 -136h3l219 -2v-241l-436 2q-74 -49 -74 -125q0 -21 6 -60l504 2v-897h-219q-105 0 -105 -122v-9l-196 -2q0 74 -8 95q-17 38 -80 38h-246z" />
<glyph unicode="%" horiz-adv-x="851" d="M0 0v178l483 783v194l201 -2v-192l-471 -762q-21 -43 -21 -112q0 -39 7 -87h-199zM8 958v7q0 51 56 111q59 63 120 67h7q57 0 120 -64q62 -63 66 -121v-3q0 -54 -64 -107q-67 -55 -129 -55q-45 0 -108.5 57t-67.5 108zM344 166v7q0 50 56 110q59 63 120 67h7 q57 0 120 -63q62 -64 66 -121v-3q0 -54 -64 -107q-67 -56 -129 -56q-45 0 -108.5 57.5t-67.5 108.5z" />
<glyph unicode="&#x26;" d="M0 1200v248q66 0 90 8q43 14 55 64l197 -2q47 -66 107 -78l292 2v-242l-106 -160h-225l82 160l-138 -2v-225l187 -225l-185 -236v-289h275l-201 289l199 242h225l-182 -236l182 -280v-330l-227 -2l2 94h-490v573l142 181l-142 159l2 287h-141z" />
<glyph unicode="'" horiz-adv-x="485" d="M0 1153l131 373l207 -60l-129 -379z" />
<glyph unicode="(" horiz-adv-x="735" d="M0 752v690h240q53 12 71 31q11 12 19 47l196 -2l2 -318h-288v-401l170 -555h120l-2 -244h-282z" />
<glyph unicode=")" horiz-adv-x="735" d="M0 0l2 242h289v479l-170 555h-121l2 244h283l245 -752v-768h-530z" />
<glyph unicode="*" d="M10 965l101 188l188 -119l-2 221h248l2 -221l188 119l101 -188l-232 -138l219 -176q0 -6 -64 -89q-61 -77 -65 -77l-147 131l-2 -202h-248l2 202l-147 -131q-4 0 -64 77q-65 83 -65 89l219 176z" />
<glyph unicode="+" d="M0 711q135 116 168 247h129v129q131 33 248 168v-297h297v-247h-297v-297h-248v297h-297z" />
<glyph unicode="," horiz-adv-x="598" d="M0 -70l131 373l207 -59l-129 -379z" />
<glyph unicode="-" d="M0 711q135 116 168 247h674v-247h-842z" />
<glyph unicode="." horiz-adv-x="598" d="M14 166v7q0 50 56 110q59 63 120 67h7q57 0 120 -63q62 -64 66 -121v-3q0 -54 -64 -107q-67 -56 -129 -56q-45 0 -108.5 57.5t-67.5 108.5z" />
<glyph unicode="/" horiz-adv-x="851" d="M0 0v178l483 783v194l201 -2v-192l-471 -762q-21 -43 -21 -112q0 -39 7 -87h-199z" />
<glyph unicode="0" d="M0 0v1442h240q53 12 71 31q11 12 19 47l196 -2q47 -66 107 -78l221 2l-2 -1442l-231 2q-60 -12 -107 -78l-197 -2q-8 35 -18 47q-18 19 -72 31h-227zM240 244h370v956h-370v-956zM371 1030q0 47 57 47q59 0 59 -59q0 -47 -53 -47q-63 0 -63 59z" />
<glyph unicode="1" horiz-adv-x="823" d="M0 0v238h139l2 962h-141v213q121 0 145 107h234l2 -1276l235 -2v-242h-616zM463 432q0 47 57 47q60 0 60 -59q0 -47 -54 -47q-63 0 -63 59z" />
<glyph unicode="2" d="M0 0v262l221 696l283 -2q6 39 6 72q0 125 -74 174l-436 -2v242l406 -2q59 12 106 78l197 2q12 -50 55 -64q24 -8 90 -8v-248h-141v-242q0 -65 42 -135.5t99 -109.5l-473 -2l-143 -467h616v-244h-854zM387 397q0 60 59 60q58 0 58 -47q0 -60 -64 -60q-53 0 -53 47z" />
<glyph unicode="3" d="M0 0v242l256 2l238 323q0 99 2 146l-496 -2v247l504 -2q6 39 6 72q0 125 -74 174l-436 -2v242l406 -2q59 12 106 78l197 2q12 -50 55 -64q24 -8 90 -8v-248h-141v-242q0 -65 42 -135.5t99 -109.5h-137v-209l-383 -504h-334z" />
<glyph unicode="4" d="M0 711v237h139l2 252h-141v213h381v-459l235 -2v490h238v-1534h-238v803h-616zM371 532q0 48 57 48q59 0 59 -60q0 -47 -53 -47q-63 0 -63 59zM377 307q0 47 57 47q60 0 60 -59q0 -47 -54 -47q-63 0 -63 59z" />
<glyph unicode="5" d="M0 0v244l283 -2q73 125 276 469l-559 2q57 39 99 109.5t42 135.5v242h-141v248q66 0 90 8q43 14 55 64l197 -2q47 -66 107 -78l405 2v-242l-436 2q-74 -49 -74 -174q0 -33 6 -72l504 2v-247l-438 -711h-416z" />
<glyph unicode="6" d="M0 713q57 39 99 109.5t42 135.5v242h-141v248q66 0 90 8q43 14 55 64l197 -2q47 -66 107 -78l405 2v-242l-436 2q-74 -49 -74 -174q0 -33 6 -72l254 2l250 -372v-586h-717v713h-137zM358 713q2 -105 2 -209q5 -154 21 -260h242v276l-146 193h-119z" />
<glyph unicode="7" d="M0 1200v242h854v-242l-129 2v-153l-326 -551v-498h-249l4 539q129 221 333 575l2 86h-489zM545 516q0 47 57 47q60 0 60 -59q0 -47 -54 -47q-63 0 -63 59zM551 291q0 47 57 47q60 0 60 -59q0 -48 -54 -48q-63 0 -63 60z" />
<glyph unicode="8" d="M0 713q57 39 99 109.5t42 135.5v242h-141v213q9 -1 18 -1q103 0 127 108l197 -2q47 -66 107 -78l405 2v-938l-326 -504h-391v713h-137zM344 1028q0 -33 6 -72h268v244l-200 2q-74 -49 -74 -174zM356 244h72l182 288l2 181h-254q1 -34 1 -97q0 -127 -3 -372z" />
<glyph unicode="9" d="M0 0v244l154 -2q73 125 276 469l-430 2v729h854v-242l-129 2v-491l-438 -711h-287zM242 1008q0 -25 4 -50l243 -2v244h-161q-86 -59 -86 -192z" />
<glyph unicode=":" horiz-adv-x="598" d="M12 676v7q0 50 56 110q59 63 120 67h7q57 0 120 -63q62 -64 66 -121v-3q0 -54 -64 -107q-67 -56 -129 -56q-45 0 -108.5 57.5t-67.5 108.5zM14 166v7q0 50 56 110q59 63 120 67h7q57 0 120 -63q62 -64 66 -121v-3q0 -54 -64 -107q-67 -56 -129 -56q-45 0 -108.5 57.5 t-67.5 108.5z" />
<glyph unicode=";" horiz-adv-x="598" d="M0 -70l131 373l207 -59l-129 -379zM12 676v7q0 50 56 110q59 63 120 67h7q57 0 120 -63q62 -64 66 -121v-3q0 -54 -64 -107q-67 -56 -129 -56q-45 0 -108.5 57.5t-67.5 108.5z" />
<glyph unicode="&#x3c;" d="M0 463v342l362 295h480v-248h-420l-176 -141h596v-248h-842z" />
<glyph unicode="=" d="M0 463v248h842v-248h-842zM0 852q135 117 168 248h674v-248h-842z" />
<glyph unicode="&#x3e;" d="M0 463v248h596l-176 141h-420v248h479l363 -295v-342h-842z" />
<glyph unicode="?" d="M0 1200v242h557l156 -484q53 -163 141 -225l-432 -2q0 -129 -2 -258h-221v485l305 -2l-68 246zM127 166v7q0 50 56 110q59 63 120 67h7q56 0 120 -63q62 -64 66 -121v-3q0 -54 -64 -107q-67 -56 -129 -56q-45 0 -108.5 57.5t-67.5 108.5z" />
<glyph unicode="@" d="M0 1200v248q66 0 90 8q43 14 55 64l197 -2q47 -66 107 -78l405 2v-731h-295v12q0 117 -108 233l190 2v242l-223 2q-74 -49 -74 -174q0 -33 6 -72l8 -243q2 -105 2 -209q5 -154 21 -260l254 -2v278h219v-520h-717l4 1200h-141z" />
<glyph unicode="A" d="M0 713q57 39 99 109.5t42 135.5v242h-141v213q9 -1 18 -1q103 0 127 108l197 -2q47 -66 107 -78l405 2l-2 -1442h-240v713h-254q4 -176 11 -353q20 -254 98 -360h-330v713h-137zM344 1028q0 -33 6 -72h268v244l-200 2q-74 -49 -74 -174z" />
<glyph unicode="B" d="M0 0v219q14 -1 26 -1q113 0 113 114l2 868h-141v242h854v-242l-225 -379h-226l201 379h-248v-977h275l-221 531h219l225 -516v-238h-408q-69 -23 -90 -92h-217q-1 13 -1 36t1 56q-50 -1 -85 -1q-34 0 -54 1z" />
<glyph unicode="C" d="M0 752v690h240q53 12 71 31q11 12 19 47l196 -2q47 -66 107 -78l221 2v-242h-614v-401l170 -555h444l-2 -244h-606zM700 1028q0 47 58 47q59 0 59 -59q0 -47 -53 -47q-64 0 -64 59z" />
<glyph unicode="D" d="M0 0v219q14 -1 26 -1q113 0 113 114l2 868h-141v242h752l102 -1204v-238h-408q-69 -23 -90 -92h-217q-1 13 -1 36t1 56q-50 -1 -85 -1q-34 0 -54 1zM356 223h275l-88 977h-187v-977z" />
<glyph unicode="E" d="M0 713q57 39 99 109.5t42 135.5v242h-141v248q66 0 90 8q43 14 55 64l197 -2q47 -66 107 -78l405 2v-242l-436 2q-74 -49 -74 -174q0 -33 6 -72l504 2v-247l-496 2q2 -105 2 -209q5 -154 21 -260l473 -2v-242h-717v713h-137z" />
<glyph unicode="F" d="M0 713q57 39 99 109.5t42 135.5v242h-141v213q8 -1 15 -1q106 0 130 108l197 -2q47 -66 107 -78l405 2v-242l-436 2q-74 -49 -74 -174q0 -33 6 -72l504 2v-247l-496 2q4 -176 11 -353q20 -254 98 -360h-330v713h-137zM694 369q0 47 58 47q59 0 59 -60q0 -47 -53 -47 q-64 0 -64 60zM700 143q0 47 58 47q59 0 59 -59q0 -47 -53 -47q-64 0 -64 59z" />
<glyph unicode="G" d="M0 0v238h139l2 962h-141v213q8 -1 15 -1q106 0 130 108l197 -2q47 -66 107 -78l405 2v-242l-436 2q-45 -119 -45 -534q0 -131 4 -287l4 -138v1l240 -2v716h231l2 -1050h-233v92h-621z" />
<glyph unicode="H" horiz-adv-x="1206" d="M0 713q43 30 80 110q31 68 61 133v244h-141v236h350v-478h266v484h238l-2 -484h149q-122 -98 -147 -247h-2l-2 -803h-234v803l-266 2v-109q0 -203 12 -299q25 -194 105 -305h-330l2 713h-139z" />
<glyph unicode="I" horiz-adv-x="823" d="M0 0v238h139l2 962h-141v213q121 0 145 107l197 -2q47 -66 107 -78l167 2v-242l-198 2q-47 -33 -47 -475q0 -223 10 -483l235 -2v-242h-616zM465 1065q0 47 57 47q60 0 60 -59q0 -47 -54 -47q-63 0 -63 59z" />
<glyph unicode="J" d="M0 0v242l274 2l95 229l-2 727h-367v242h281q53 12 71 31q10 12 19 47l196 -2q47 -66 107 -78l180 2v-242l-211 2q-74 -49 -74 -174q0 -33 6 -72v-512l-188 -444h-387zM76 1034q0 47 57 47q60 0 60 -59q0 -47 -54 -47q-63 0 -63 59z" />
<glyph unicode="K" d="M0 518q43 31 80 113q31 65 61 133v676l211 1l-2 -679l502 -2l-2 -852l-223 -2v610l-269 2l-2 -516l-223 -2l4 518h-137zM403 821l201 379l-2 240l252 2v-242l-225 -379h-226z" />
<glyph unicode="L" d="M0 0v238h139l2 962h-141v213q121 0 145 107h234l2 -1276l473 -2v-242h-854zM494 410q0 47 57 47q59 0 59 -60q0 -47 -53 -47q-63 0 -63 60z" />
<glyph unicode="M" horiz-adv-x="1349" d="M0 0v1436h358q9 -2 17 -2q28 0 50 23q18 18 18 51q0 6 -1 12l197 -2q4 -52 27 -66q19 -12 65 -12h14l406 2l-2 -1442h-231l-3 1200l-200 2q-74 -49 -74 -174q0 -33 6 -72v-352q6 -239 15 -299q22 -196 102 -305h-324l-2 1200h-202v-1200h-236z" />
<glyph unicode="N" d="M0 1200v213q145 12 145 107l197 -2q47 -66 107 -78l405 2l-2 -1442h-236l2 1200l-200 2q-74 -49 -74 -174q0 -33 6 -72v-352q6 -239 15 -299q22 -196 102 -305h-330l4 1200h-141z" />
<glyph unicode="O" d="M0 0v1442h854l-2 -1442h-852zM240 244h370v956h-370v-956zM371 1030q0 47 57 47q59 0 59 -59q0 -47 -53 -47q-63 0 -63 59z" />
<glyph unicode="P" d="M0 1200v246q66 0 90 8q43 14 55 64h197q47 -66 107 -78l405 2v-242l-225 -379h-226l201 379h-248v-1292h-217l2 1292h-141z" />
<glyph unicode="Q" horiz-adv-x="1165" d="M0 0v1442h854v-1118q0 -72 25 -91q18 -15 58 -15q12 0 26 1v-219q-19 -1 -54 -1t-86 1q1 -33 1 -56t-1 -36h-217q-20 69 -90 92h-516zM240 244h370v956h-370v-956zM371 1030q0 47 57 47q59 0 59 -59q0 -47 -53 -47q-63 0 -63 59z" />
<glyph unicode="R" d="M0 518q43 31 80 113q31 65 61 133v436h-141v248q66 0 90 8q43 14 55 64l197 -2q47 -66 107 -78l405 2v-242l-225 -379h-226l201 379l-252 -2l-2 -436l502 -2l-2 -852l-223 -2v610l-269 2l-2 -516l-223 -2l4 518h-137z" />
<glyph unicode="S" d="M0 0v244h616v467l-616 2q57 39 99 109.5t42 135.5v242h-141v248q66 0 90 8q43 14 55 64l197 -2q47 -66 107 -78l405 2v-242l-436 2q-74 -49 -74 -174q0 -33 6 -72l504 2v-958h-854zM63 379q0 47 58 47q59 0 59 -59q0 -48 -53 -48q-64 0 -64 60z" />
<glyph unicode="T" d="M0 1200v242h199q53 12 71 31q11 12 19 47l196 -2q47 -66 107 -78l262 2v-242l-293 2q-74 -49 -74 -174q0 -33 7 -72l8 -243q4 -176 10 -353q20 -254 98 -360h-323l-2 1200h-285zM659 1024q0 47 58 47q59 0 59 -59q0 -47 -53 -47q-64 0 -64 59zM666 799q0 47 57 47 q59 0 59 -60q0 -47 -53 -47q-63 0 -63 60z" />
<glyph unicode="U" d="M0 0v238h139l2 962h-141v213h381v-1169l235 -2v1200h238v-1534h-238v92h-616z" />
<glyph unicode="V" d="M0 0v238h139l2 962h-141v213h381v-1169l233 311l2 887h238l-2 -930l-406 -512h-446z" />
<glyph unicode="W" horiz-adv-x="1349" d="M0 0v1442h236v-1206h202l2 1284h324q-80 -109 -102 -306q-9 -59 -15 -299v-352q-6 -39 -6 -86q0 -194 74 -244l200 3l5 1212h231l2 -1448l-408 -4h-13q-47 0 -66 -12q-23 -15 -27 -66l-197 -2q1 6 1 12q0 33 -18 52q-22 22 -50 22q-8 0 -17 -2h-358z" />
<glyph unicode="X" d="M-2 764l854 -4l-2 -852l-223 -2v610l-404 4v-610l-223 2zM0 1204v232l252 2l-2 -234l96 -186h162l96 182l-2 242h252v-242l-225 -379h-402zM365 371q0 47 57 47q59 0 59 -60q0 -47 -53 -47q-63 0 -63 60z" />
<glyph unicode="Y" d="M0 1200v213h381l2 -762l125 -166h108v957h238v-1534h-238v334h-200l-275 348v610h-141z" />
<glyph unicode="Z" d="M0 0v219q7 -1 13 -1q44 0 71 36q27 35 63 139l457 807h-604v242h854v-242l-502 -864q-18 -37 -18 -64q0 -28 24 -34h496v-238h-485q-70 -23 -90 -92h-218q-2 26 -61 92z" />
<glyph unicode="[" horiz-adv-x="651" d="M0 0v1442h440v-242h-200v-956h200v-244h-440z" />
<glyph unicode="\" horiz-adv-x="851" d="M0 961v192l201 2v-194l483 -783v-178h-199q6 46 6 85q0 70 -20 114z" />
<glyph unicode="]" horiz-adv-x="651" d="M0 0v244h201v956h-201v242h440v-1442h-440z" />
<glyph unicode="^" horiz-adv-x="829" d="M0 1653l131 373l401 2l132 -373l-209 -65l-93 245h-59l-94 -248z" />
<glyph unicode="_" d="M0 0q135 117 168 248h897v-248h-1065z" />
<glyph unicode="`" horiz-adv-x="485" d="M0 1966l207 60l131 -373l-209 -66z" />
<glyph unicode="a" horiz-adv-x="851" d="M0 570q46 32 79.5 88t33.5 108v194h-113v170h14q83 0 102 86l158 -2q37 -52 85 -62l324 2l-1 -1154h-192v570h-204q4 -140 9 -282q16 -203 79 -288h-264v570h-110zM275 822q0 -26 5 -57h214v195l-160 2q-59 -40 -59 -140z" />
<glyph unicode="b" horiz-adv-x="851" d="M0 0v175q11 -1 21 -1q90 0 90 92l2 694h-113v194h683v-194l-180 -303h-181l161 303h-198v-782h220l-177 425h175l180 -413v-190h-326q-55 -18 -72 -74h-174q-1 11 -1 29q0 19 1 45q-40 -1 -68 -1q-27 0 -43 1z" />
<glyph unicode="c" horiz-adv-x="851" d="M0 602v552h192q42 9 57 24q9 10 15 38l157 -2q37 -52 85 -62l177 2v-194h-491v-321l136 -444h355l-1 -195h-485zM560 822q0 38 46 38q48 0 48 -47q0 -38 -43 -38q-51 0 -51 47z" />
<glyph unicode="d" horiz-adv-x="851" d="M0 0v175q11 -1 21 -1q90 0 90 92l2 694h-113v194h602l81 -964v-190h-326q-55 -18 -72 -74h-174q-1 11 -1 29q0 19 1 45q-40 -1 -68 -1q-27 0 -43 1zM285 178h220l-71 782h-149v-782z" />
<glyph unicode="e" horiz-adv-x="851" d="M0 570q46 32 79.5 88t33.5 108v194h-113v198q53 0 72 7q34 11 44 51l158 -2q37 -52 85 -62l324 2v-194l-349 2q-59 -40 -59 -140q0 -26 5 -57l403 1v-197l-397 1q2 -84 2 -167q4 -123 17 -208l378 -1v-194h-573v570h-110z" />
<glyph unicode="f" horiz-adv-x="851" d="M0 570q46 32 79.5 88t33.5 108v194h-113v170h12q85 0 104 86l158 -2q37 -52 85 -62l324 2v-194l-349 2q-59 -40 -59 -140q0 -26 5 -57l403 1v-197l-397 1q4 -140 9 -282q16 -203 79 -288h-264v570h-110zM555 295q0 38 47 38t47 -48q0 -38 -43 -38q-51 0 -51 48zM560 114 q0 38 46 38q48 0 48 -47q0 -38 -43 -38q-51 0 -51 47z" />
<glyph unicode="g" horiz-adv-x="851" d="M0 0v190h111l2 770h-113v170h12q85 0 104 86l158 -2q37 -52 85 -62l324 2v-194l-349 2q-36 -96 -36 -428q0 -104 4 -229l3 -111v1l192 -1v572h185l1 -840h-186v74h-497z" />
<glyph unicode="h" horiz-adv-x="965" d="M0 570q34 24 64 88q25 55 49 107v195h-113v189h280v-383h213v388h190l-1 -388h119q-98 -78 -118 -197h-1l-2 -643h-187v643l-213 1v-87q0 -162 10 -239q20 -155 84 -244h-264l1 570h-111z" />
<glyph unicode="i" horiz-adv-x="658" d="M0 0v190h111l2 770h-113v170q97 0 116 86l158 -2q37 -52 85 -62l134 2v-194l-159 2q-37 -27 -37 -380q0 -179 8 -387l188 -1v-194h-493zM372 852q0 38 46 38q48 0 48 -48q0 -37 -44 -37q-50 0 -50 47z" />
<glyph unicode="j" horiz-adv-x="851" d="M0 0v194l219 1l76 183l-1 582h-294v194h225q42 9 57 24q8 10 15 38l157 -2q37 -52 85 -62l144 2v-194l-169 2q-59 -40 -59 -140q0 -26 5 -57v-410l-150 -355h-310zM61 827q0 38 45 38q48 0 48 -47q0 -38 -43 -38q-50 0 -50 47z" />
<glyph unicode="k" horiz-adv-x="851" d="M0 414q34 25 64 91q25 52 49 106v541l169 1l-2 -543l402 -2l-2 -682l-178 -1v488l-216 1l-1 -412l-179 -2l4 414h-110zM322 657l161 303l-1 192l201 2v-194l-180 -303h-181z" />
<glyph unicode="l" horiz-adv-x="851" d="M0 0v190h111l2 770h-113v170q97 0 116 86h187l2 -1021l378 -1v-194h-683zM395 328q0 38 46 38q47 0 47 -48q0 -38 -42 -38q-51 0 -51 48z" />
<glyph unicode="m" horiz-adv-x="1079" d="M0 0v1149h286q8 -2 14 -2q22 0 40 19q14 14 14 40v10l157 -2q3 -41 22 -52q15 -10 52 -10h11l325 2l-2 -1154h-185l-2 960l-160 2q-59 -40 -59 -140q0 -26 5 -57v-282q4 -191 12 -239q17 -157 81 -244h-259l-2 960h-161v-960h-189z" />
<glyph unicode="n" horiz-adv-x="851" d="M0 960v170q116 10 116 86l158 -2q37 -52 85 -62l324 2l-1 -1154h-189l1 960l-160 2q-59 -40 -59 -140q0 -26 5 -57v-282q5 -191 12 -239q18 -157 82 -244h-264l3 960h-113z" />
<glyph unicode="o" horiz-adv-x="851" d="M0 0v1154h683l-1 -1154h-682zM192 195h296v765h-296v-765zM297 824q0 38 45 38q48 0 48 -48q0 -37 -43 -37q-50 0 -50 47z" />
<glyph unicode="p" horiz-adv-x="851" d="M0 960v197q53 0 72 6q34 11 44 51h158q37 -52 85 -62l324 2v-194l-180 -303h-181l161 303h-198v-1034h-174l2 1034h-113z" />
<glyph unicode="q" horiz-adv-x="932" d="M0 0v1154h683v-895q0 -57 20 -73q15 -12 47 -12q9 0 20 1v-175q-15 -1 -43 -1t-69 1q1 -26 1 -45q0 -18 -1 -29h-173q-16 56 -72 74h-413zM192 195h296v765h-296v-765zM297 824q0 38 45 38q48 0 48 -48q0 -37 -43 -37q-50 0 -50 47z" />
<glyph unicode="r" horiz-adv-x="851" d="M0 414q34 25 64 91q25 52 49 106v349h-113v198q53 0 72 7q34 11 44 51l158 -2q37 -52 85 -62l324 2v-194l-180 -303h-181l161 303l-201 -2l-2 -348l402 -2l-2 -682l-178 -1v488l-216 1l-1 -412l-179 -2l4 414h-110z" />
<glyph unicode="s" horiz-adv-x="851" d="M0 0v195h493v374l-493 1q46 32 79.5 88t33.5 108v194h-113v198q53 0 72 7q34 11 44 51l158 -2q37 -52 85 -62l324 2v-194l-349 2q-59 -40 -59 -140q0 -26 5 -57l403 1v-766h-683zM50 303q0 38 47 38t47 -47q0 -39 -42 -39q-52 0 -52 48z" />
<glyph unicode="t" horiz-adv-x="851" d="M0 960v194h159q43 9 57 24q9 10 15 38l157 -2q38 -52 86 -62l209 2v-194l-234 2q-59 -40 -59 -140q0 -26 5 -57l7 -195q3 -140 8 -282q16 -203 78 -288h-258l-2 960h-228zM527 819q0 38 47 38t47 -47q0 -38 -43 -38q-51 0 -51 47zM533 639q0 38 45 38q48 0 48 -48 q0 -38 -43 -38q-50 0 -50 48z" />
<glyph unicode="u" horiz-adv-x="851" d="M0 0v190h111l2 770h-113v170h305v-935l188 -1v960h190v-1228h-190v74h-493z" />
<glyph unicode="v" horiz-adv-x="851" d="M0 0v190h111l2 770h-113v170h305v-935l186 249l2 710h190l-1 -744l-325 -410h-357z" />
<glyph unicode="w" horiz-adv-x="1079" d="M0 0v1154h189v-965h161l2 1027h259q-64 -87 -81 -245q-8 -47 -12 -239v-282q-5 -31 -5 -68q0 -156 59 -196l160 3l4 969h185l1 -1158l-326 -3h-10q-38 0 -53 -10q-19 -12 -22 -53l-157 -1v9q0 27 -14 42q-18 18 -40 18q-6 0 -14 -2h-286z" />
<glyph unicode="x" horiz-adv-x="851" d="M-2 611l683 -3l-1 -682l-179 -1v488l-323 3v-488l-178 2zM0 963v186l201 1l-1 -187l76 -149h130l77 146l-2 194h202v-194l-180 -303h-322zM292 297q0 37 45 37q47 0 47 -48q0 -37 -42 -37q-50 0 -50 48z" />
<glyph unicode="y" horiz-adv-x="851" d="M0 960v170h305l1 -609l100 -133h87v766h190v-1228h-190v268h-160l-220 278v488h-113z" />
<glyph unicode="z" horiz-adv-x="851" d="M0 0v175q6 -1 10 -1q36 0 57 29q22 28 51 111l365 646h-483v194h683v-194l-401 -691q-15 -30 -15 -51q0 -23 19 -28h397v-190h-388q-56 -18 -72 -74h-174q-2 21 -49 74z" />
<glyph unicode="{" horiz-adv-x="735" d="M0 752v690h240q53 12 71 31q11 12 19 47l196 -2l2 -318h-288v-401l170 -555h120l-2 -244h-282z" />
<glyph unicode="|" horiz-adv-x="829" d="M0 1200v248l102 2q93 16 105 70h221l-4 -1272h199v-248l-103 -2q-92 -16 -104 -70h-221l4 1272h-199z" />
<glyph unicode="}" horiz-adv-x="735" d="M0 0l2 242h289v479l-170 555h-121l2 244h283l245 -752v-768h-530z" />
<glyph unicode="~" horiz-adv-x="829" d="M0 1673l131 373l299 -94l27 75l207 -59l-129 -379l-209 66q4 26 4 43q0 47 -62 88l-59 -179z" />
<glyph unicode="&#xa1;" horiz-adv-x="829" d="M0 1354v3q0 54 64 107q67 56 129 56q45 0 108.5 -57.5t67.5 -108.5v-7q0 -50 -56 -110q-59 -63 -120 -67h-7q-56 0 -120 63q-62 64 -66 121zM68 0l8 1047h221v-727h199v-248l-102 -2q-93 -16 -105 -70h-221z" />
<glyph unicode="&#xa2;" horiz-adv-x="851" d="M0 602v552h224q42 9 57 24q9 10 26 38v112h197l11 -128q31 -40 71 -48l97 2v-194h-491v-321l136 -444h355l-1 -195h-176l8 -120h-194v120h-123zM560 822q0 38 46 38q48 0 48 -47q0 -38 -43 -38q-51 0 -51 47z" />
<glyph unicode="&#xa3;" d="M0 0l43 200l95 10l-1 503h-137q57 39 99 109.5t42 135.5v242q28 220 308 240l405 2v-242l-436 2q-74 -49 -74 -174q0 -33 6 -72l304 -8v-227l-296 -8q2 -105 2 -209q5 -154 21 -260l473 -2v-242h-454v-100l-246 37v63h-154z" />
<glyph unicode="&#xa4;" horiz-adv-x="851" d="M0 145v178l48 77h-32v642h24l-40 64v192l201 2v-194l39 -64h204l39 64v194l201 -2v-192l-40 -64h26l-2 -642h-32l48 -77v-178h-199q6 46 6 85q0 70 -20 114l-35 56h-188l-35 -56q-21 -43 -21 -112q0 -39 7 -87h-199zM256 644h170v156h-170v-156z" />
<glyph unicode="&#xa5;" d="M0 123v248h327v141h-327q135 117 168 248h161v61h-102l-227 383v232l252 2l-2 -234l96 -186h162l96 182l-2 242h252v-242l-225 -379h-77v-61h290v-248h-291v-141h291v-248h-292v-215l-223 -2v217h-327z" />
<glyph unicode="&#xa6;" horiz-adv-x="829" d="M0 1200v248l102 2q93 16 105 70h221l-2 -683l-228 -31l1 394h-199zM195 -72l2 722l228 43l-1 -445h199v-248l-103 -2q-92 -16 -104 -70h-221z" />
<glyph unicode="&#xa7;" horiz-adv-x="1014" d="M170 1130q0 148 89 237q82 79 216 86q8 1 17 1h3q66 0 163 -16.5t97 -41.5v-194h-51q-5 81 -80 132q-70 47 -149 51h-15q-78 0 -125 -44.5t-47 -117.5q0 -132 287 -269q149 -67 204.5 -143.5t55.5 -187.5q0 -171 -101 -282q-47 -39 -99 -64q108 -56 154 -118 q55 -77 55 -187q0 -171 -101 -283q-124 -102 -277 -105v1q-6 -1 -13 -1h-3q-66 0 -163 16.5t-97 41.5v194h51q5 -81 80 -132q68 -45 145 -50q113 6 185 69q72 64 72 165q0 125 -316 276q-123 64 -175.5 137t-52.5 177q0 148 89 237q67 65 170 82l-40 19q-123 64 -175.5 137 t-52.5 177zM297 571q0 -123 248 -250q56 16 97 53q73 65 73 166q0 5 -1 10h-2q-1 14 -4 27q-22 61 -113 127q-59 29 -126 29q-78 0 -125 -44.5t-47 -117.5z" />
<glyph unicode="&#xa8;" d="M0 1866v7q0 50 56 110q59 63 120 67h7q57 0 120 -63q62 -64 66 -121v-3q0 -54 -64 -107q-67 -56 -129 -56q-45 0 -108.5 57.5t-67.5 108.5zM531 1866v7q0 50 56 110q59 63 120 67h7q57 0 120 -63q62 -64 66 -121v-3q0 -54 -64 -107q-67 -56 -129 -56q-45 0 -108.5 57.5 t-67.5 108.5z" />
<glyph unicode="&#xa9;" horiz-adv-x="1150" d="M0 1125q0 238 139 406.5t336 168.5t336 -168.5t139 -406.5t-139 -406.5t-336 -168.5t-336 168.5t-139 406.5zM100 1125q0 -197 110 -336t265 -139t265 139t110 336t-110 336t-265 139t-265 -139t-110 -336zM250 1136v345h120q27 6 36 16q5 6 9 23l98 -1q24 -33 54 -39 l110 1v-121h-307v-200l85 -278h222l-1 -122h-303zM600 1274q0 24 29 24q30 0 30 -30q0 -23 -27 -23q-32 0 -32 29z" />
<glyph unicode="&#xaa;" horiz-adv-x="1650" d="M0 200v1100q0 200 200 200h1100q200 0 200 -200v-1100q0 -200 -200 -200h-1100q-200 0 -200 200zM25 200q1 -175 175 -175h1101q174 0 174 176v1099q0 175 -175 175h-1100q-174 0 -175 -175v-1100z" />
<glyph unicode="&#xab;" horiz-adv-x="944" d="M174 479l342 303h14v-37l-205 -266l205 -266v-37h-14zM487 479l342 303h14v-37l-205 -266l205 -266v-37h-14z" />
<glyph unicode="&#xac;" horiz-adv-x="1014" d="M87 667v100h840v-491l-1 -1h-98v392h-741z" />
<glyph unicode="&#xad;" d="M0 711q135 116 168 247h674v-247h-842z" />
<glyph unicode="&#xae;" horiz-adv-x="1150" d="M0 1125q0 238 139 406.5t336 168.5t336 -168.5t139 -406.5t-139 -406.5t-336 -168.5t-336 168.5t-139 406.5zM100 1125q0 -197 110 -336t265 -139q105 0 190 64l-111 -1v305l-135 1l-1 -258l-111 -1l2 259h-69q22 16 40 57q16 32 31 66v218h-71v124q33 0 45 4q22 7 28 32 l98 -1q24 -33 54 -39l202 1v-121l-112 -189h-113l100 189l-126 -1l-1 -218l251 -1l1 -425q38 30 73 74q110 139 110 336t-110 336t-265 139t-265 -139t-110 -336z" />
<glyph unicode="&#xaf;" horiz-adv-x="1650" d="M0 200v1100q0 200 200 200h1100q200 0 200 -200v-1100q0 -200 -200 -200h-1100q-200 0 -200 200zM25 200q1 -175 175 -175h1101q174 0 174 176v1099q0 175 -175 175h-1100q-174 0 -175 -175v-1100z" />
<glyph unicode="&#xb0;" horiz-adv-x="674" d="M60 1164q0 116 81.5 197t197.5 81q115 0 196 -81.5t81 -196.5q0 -114 -82 -196t-197 -82q-117 0 -197 81t-80 197zM130 1163q0 -87 61 -147t148 -60t147 60t60 147t-60.5 148t-146.5 61t-147.5 -61t-61.5 -148z" />
<glyph unicode="&#xb1;" d="M0 251q135 116 168 247h674v-247h-842zM0 901q135 116 168 247h129v129q131 33 248 168v-297h297v-247h-297v-297h-248v297h-297z" />
<glyph unicode="&#xb2;" horiz-adv-x="1650" d="M0 200v1100q0 200 200 200h1100q200 0 200 -200v-1100q0 -200 -200 -200h-1100q-200 0 -200 200zM25 200q1 -175 175 -175h1101q174 0 174 176v1099q0 175 -175 175h-1100q-174 0 -175 -175v-1100z" />
<glyph unicode="&#xb3;" horiz-adv-x="1650" d="M0 200v1100q0 200 200 200h1100q200 0 200 -200v-1100q0 -200 -200 -200h-1100q-200 0 -200 200zM25 200q1 -175 175 -175h1101q174 0 174 176v1099q0 175 -175 175h-1100q-174 0 -175 -175v-1100z" />
<glyph unicode="&#xb4;" horiz-adv-x="485" d="M0 1653l131 373l207 -60l-129 -379z" />
<glyph unicode="&#xb5;" d="M0 -92v1534h238v-1200l235 2v1169h381v-213h-141l2 -962h139v-238h-616v-92h-238z" />
<glyph unicode="&#xb6;" horiz-adv-x="1024" d="M93 1086q0 157 107.5 253t285.5 96h443v-70h-127v-1365h-82v1365h-166v-1365h-84v738q-174 8 -275.5 102.5t-101.5 245.5z" />
<glyph unicode="&#xb7;" horiz-adv-x="598" d="M12 676v7q0 50 56 110q59 63 120 67h7q57 0 120 -63q62 -64 66 -121v-3q0 -54 -64 -107q-67 -56 -129 -56q-45 0 -108.5 57.5t-67.5 108.5z" />
<glyph unicode="&#xb8;" d="M0 -156l283 -2q73 125 276 399h295l-438 -641h-416v244z" />
<glyph unicode="&#xb9;" horiz-adv-x="1650" d="M0 200v1100q0 200 200 200h1100q200 0 200 -200v-1100q0 -200 -200 -200h-1100q-200 0 -200 200zM25 200q1 -175 175 -175h1101q174 0 174 176v1099q0 175 -175 175h-1100q-174 0 -175 -175v-1100z" />
<glyph unicode="&#xba;" horiz-adv-x="1650" d="M0 200v1100q0 200 200 200h1100q200 0 200 -200v-1100q0 -200 -200 -200h-1100q-200 0 -200 200zM25 200q1 -175 175 -175h1101q174 0 174 176v1099q0 175 -175 175h-1100q-174 0 -175 -175v-1100z" />
<glyph unicode="&#xbb;" horiz-adv-x="944" d="M101 176v37l205 266l-205 266v37h14l342 -303l-342 -303h-14zM414 176v37l205 266l-205 266v37h14l342 -303l-342 -303h-14z" />
<glyph unicode="&#xbc;" horiz-adv-x="1650" d="M0 200v1100q0 200 200 200h1100q200 0 200 -200v-1100q0 -200 -200 -200h-1100q-200 0 -200 200zM25 200q1 -175 175 -175h1101q174 0 174 176v1099q0 175 -175 175h-1100q-174 0 -175 -175v-1100z" />
<glyph unicode="&#xbd;" horiz-adv-x="1650" d="M0 200v1100q0 200 200 200h1100q200 0 200 -200v-1100q0 -200 -200 -200h-1100q-200 0 -200 200zM25 200q1 -175 175 -175h1101q174 0 174 176v1099q0 175 -175 175h-1100q-174 0 -175 -175v-1100z" />
<glyph unicode="&#xbe;" horiz-adv-x="1650" d="M0 200v1100q0 200 200 200h1100q200 0 200 -200v-1100q0 -200 -200 -200h-1100q-200 0 -200 200zM25 200q1 -175 175 -175h1101q174 0 174 176v1099q0 175 -175 175h-1100q-174 0 -175 -175v-1100z" />
<glyph unicode="&#xbf;" d="M0 709l432 2q0 129 2 258h221v-485l-305 2l68 -246l436 2v-242h-557l-156 484q-53 163 -141 225zM358 1276v3q0 54 64 107q67 56 129 56q45 0 108.5 -57.5t67.5 -108.5v-7q0 -50 -56 -110q-59 -63 -120 -67h-7q-56 0 -120 63q-62 64 -66 121z" />
<glyph unicode="&#xc0;" d="M0 713q57 39 99 109.5t42 135.5v242h-141v213q9 -1 18 -1q103 0 127 108l197 -2q47 -66 107 -78l405 2l-2 -1442h-240v713h-254q4 -176 11 -353q20 -254 98 -360h-330v713h-137zM300 1976l207 60l131 -373l-209 -66zM344 1028q0 -33 6 -72h268v244l-200 2 q-74 -49 -74 -174z" />
<glyph unicode="&#xc1;" d="M0 713q57 39 99 109.5t42 135.5v242h-141v213q9 -1 18 -1q103 0 127 108l197 -2q47 -66 107 -78l405 2l-2 -1442h-240v713h-254q4 -176 11 -353q20 -254 98 -360h-330v713h-137zM310 1653l131 373l207 -60l-129 -379zM344 1028q0 -33 6 -72h268v244l-200 2 q-74 -49 -74 -174z" />
<glyph unicode="&#xc2;" d="M0 713q57 39 99 109.5t42 135.5v242h-141v213q9 -1 18 -1q103 0 127 108l197 -2q47 -66 107 -78l405 2l-2 -1442h-240v713h-254q4 -176 11 -353q20 -254 98 -360h-330v713h-137zM170 1653l131 373l401 2l132 -373l-209 -65l-93 245h-59l-94 -248zM344 1028q0 -33 6 -72 h268v244l-200 2q-74 -49 -74 -174z" />
<glyph unicode="&#xc3;" d="M0 713q57 39 99 109.5t42 135.5v242h-141v213q9 -1 18 -1q103 0 127 108l197 -2q47 -66 107 -78l405 2l-2 -1442h-240v713h-254q4 -176 11 -353q20 -254 98 -360h-330v713h-137zM150 1683l131 373l299 -94l27 75l207 -59l-129 -379l-209 66q4 26 4 43q0 47 -62 88 l-59 -179zM344 1028q0 -33 6 -72h268v244l-200 2q-74 -49 -74 -174z" />
<glyph unicode="&#xc4;" d="M0 713q57 39 99 109.5t42 135.5v242h-141v213q9 -1 18 -1q103 0 127 108l197 -2q47 -66 107 -78l405 2l-2 -1442h-240v713h-254q4 -176 11 -353q20 -254 98 -360h-330v713h-137zM0 1866v7q0 50 56 110q59 63 120 67h7q57 0 120 -63q62 -64 66 -121v-3q0 -54 -64 -107 q-67 -56 -129 -56q-45 0 -108.5 57.5t-67.5 108.5zM344 1028q0 -33 6 -72h268v244l-200 2q-74 -49 -74 -174zM531 1866v7q0 50 56 110q59 63 120 67h7q57 0 120 -63q62 -64 66 -121v-3q0 -54 -64 -107q-67 -56 -129 -56q-45 0 -108.5 57.5t-67.5 108.5z" />
<glyph unicode="&#xc5;" d="M0 713q57 39 99 109.5t42 135.5v242h-141v213q9 -1 18 -1q103 0 127 108l197 -2q47 -66 107 -78l405 2l-2 -1442h-240v713h-254q4 -176 11 -353q20 -254 98 -360h-330v713h-137zM280 1866v7q0 50 56 110q59 63 120 67h7q57 0 120 -63q62 -64 66 -121v-3q0 -54 -64 -107 q-67 -56 -129 -56q-45 0 -108.5 57.5t-67.5 108.5zM344 1028q0 -33 6 -72h268v244l-200 2q-74 -49 -74 -174z" />
<glyph unicode="&#xc6;" horiz-adv-x="1525" d="M0 713q57 39 99 109.5t42 135.5v242h-141v213q9 -1 18 -1q103 0 127 108l197 -2q47 -66 107 -78h26v8q66 0 90 8q43 14 55 64l197 -2q47 -66 107 -78l405 2v-242l-436 2q-23 -15 -39 -39l-1 -207l476 2v-247l-476 2l-1 -443l4 -26l473 -2v-242h-717v713h-254 q4 -176 11 -353q20 -254 98 -360h-330v713h-137zM344 1028q0 -33 6 -72h268v244l-200 2q-74 -49 -74 -174z" />
<glyph unicode="&#xc7;" d="M0 -156l283 -2q36 61 103 158h-140l-246 752v690h240q53 12 71 31q11 12 19 47l196 -2q47 -66 107 -78l221 2v-242h-614v-401l170 -555h444v-3l-2 -241h-163l-273 -400h-416v244zM700 1028q0 47 58 47q59 0 59 -59q0 -47 -53 -47q-64 0 -64 59z" />
<glyph unicode="&#xc8;" d="M0 713q57 39 99 109.5t42 135.5v242h-141v248q66 0 90 8q43 14 55 64l197 -2q47 -66 107 -78l405 2v-242l-436 2q-74 -49 -74 -174q0 -33 6 -72l504 2v-247l-496 2q2 -105 2 -209q5 -154 21 -260l473 -2v-242h-717v713h-137zM300 1976l207 60l131 -373l-209 -66z" />
<glyph unicode="&#xc9;" d="M0 713q57 39 99 109.5t42 135.5v242h-141v248q66 0 90 8q43 14 55 64l197 -2q47 -66 107 -78l405 2v-242l-436 2q-74 -49 -74 -174q0 -33 6 -72l504 2v-247l-496 2q2 -105 2 -209q5 -154 21 -260l473 -2v-242h-717v713h-137zM310 1653l131 373l207 -60l-129 -379z" />
<glyph unicode="&#xca;" d="M0 713q57 39 99 109.5t42 135.5v242h-141v248q66 0 90 8q43 14 55 64l197 -2q47 -66 107 -78l405 2v-242l-436 2q-74 -49 -74 -174q0 -33 6 -72l504 2v-247l-496 2q2 -105 2 -209q5 -154 21 -260l473 -2v-242h-717v713h-137zM170 1653l131 373l401 2l132 -373l-209 -65 l-93 245h-59l-94 -248z" />
<glyph unicode="&#xcb;" d="M0 713q57 39 99 109.5t42 135.5v242h-141v248q66 0 90 8q43 14 55 64l197 -2q47 -66 107 -78l405 2v-242l-436 2q-74 -49 -74 -174q0 -33 6 -72l504 2v-247l-496 2q2 -105 2 -209q5 -154 21 -260l473 -2v-242h-717v713h-137zM0 1866v7q0 50 56 110q59 63 120 67h7 q57 0 120 -63q62 -64 66 -121v-3q0 -54 -64 -107q-67 -56 -129 -56q-45 0 -108.5 57.5t-67.5 108.5zM531 1866v7q0 50 56 110q59 63 120 67h7q57 0 120 -63q62 -64 66 -121v-3q0 -54 -64 -107q-67 -56 -129 -56q-45 0 -108.5 57.5t-67.5 108.5z" />
<glyph unicode="&#xcc;" horiz-adv-x="823" d="M0 0v238h139l2 962h-141v213q121 0 145 107l197 -2q47 -66 107 -78l167 2v-242l-198 2q-47 -33 -47 -475q0 -223 10 -483l235 -2v-242h-616zM130 1976l207 60l131 -373l-209 -66zM465 1065q0 47 57 47q60 0 60 -59q0 -47 -54 -47q-63 0 -63 59z" />
<glyph unicode="&#xcd;" horiz-adv-x="823" d="M0 0v238h139l2 962h-141v213q121 0 145 107l197 -2q47 -66 107 -78l167 2v-242l-198 2q-47 -33 -47 -475q0 -223 10 -483l235 -2v-242h-616zM160 1653l131 373l207 -60l-129 -379zM465 1065q0 47 57 47q60 0 60 -59q0 -47 -54 -47q-63 0 -63 59z" />
<glyph unicode="&#xce;" horiz-adv-x="823" d="M-40 1653l131 373l401 2l132 -373l-209 -65l-93 245h-59l-94 -248zM0 0v238h139l2 962h-141v213q121 0 145 107l197 -2q47 -66 107 -78l167 2v-242l-198 2q-47 -33 -47 -475q0 -223 10 -483l235 -2v-242h-616zM465 1065q0 47 57 47q60 0 60 -59q0 -47 -54 -47 q-63 0 -63 59z" />
<glyph unicode="&#xcf;" horiz-adv-x="823" d="M-160 1866v7q0 50 56 110q59 63 120 67h7q57 0 120 -63q62 -64 66 -121v-3q0 -54 -64 -107q-67 -56 -129 -56q-45 0 -108.5 57.5t-67.5 108.5zM0 0v238h139l2 962h-141v213q121 0 145 107l197 -2q47 -66 107 -78l167 2v-242l-198 2q-47 -33 -47 -475q0 -223 10 -483 l235 -2v-242h-616zM371 1866v7q0 50 56 110q59 63 120 67h7q57 0 120 -63q62 -64 66 -121v-3q0 -54 -64 -107q-67 -56 -129 -56q-45 0 -108.5 57.5t-67.5 108.5zM465 1065q0 47 57 47q60 0 60 -59q0 -47 -54 -47q-63 0 -63 59z" />
<glyph unicode="&#xd0;" d="M0 0v219q14 -1 26 -1q113 0 113 114l1 379h-140q105 116 138 247h2l1 242h-141v242h752l102 -1204v-238h-408q-69 -23 -90 -92h-217q-1 13 -1 36t1 56q-50 -1 -85 -1q-34 0 -54 1zM356 223h275l-88 977h-187v-242h116v-247h-116v-488z" />
<glyph unicode="&#xd1;" d="M0 1200v213q145 12 145 107l197 -2q47 -66 107 -78l405 2l-2 -1442h-236l2 1200l-200 2q-74 -49 -74 -174q0 -33 6 -72v-352q6 -239 15 -299q22 -196 102 -305h-330l4 1200h-141zM150 1683l131 373l299 -94l27 75l207 -59l-129 -379l-209 66q4 26 4 43q0 47 -62 88 l-59 -179z" />
<glyph unicode="&#xd2;" d="M0 0v1442h854l-2 -1442h-852zM240 244h370v956h-370v-956zM300 1976l207 60l131 -373l-209 -66zM371 1030q0 47 57 47q59 0 59 -59q0 -47 -53 -47q-63 0 -63 59z" />
<glyph unicode="&#xd3;" d="M0 0v1442h854l-2 -1442h-852zM240 244h370v956h-370v-956zM250 1653l131 373l207 -60l-129 -379zM371 1030q0 47 57 47q59 0 59 -59q0 -47 -53 -47q-63 0 -63 59z" />
<glyph unicode="&#xd4;" d="M0 0v1442h854l-2 -1442h-852zM100 1653l131 373l401 2l132 -373l-209 -65l-93 245h-59l-94 -248zM240 244h370v956h-370v-956zM371 1030q0 47 57 47q59 0 59 -59q0 -47 -53 -47q-63 0 -63 59z" />
<glyph unicode="&#xd5;" d="M0 0v1442h854l-2 -1442h-852zM150 1683l131 373l299 -94l27 75l207 -59l-129 -379l-209 66q4 26 4 43q0 47 -62 88l-59 -179zM240 244h370v956h-370v-956zM371 1030q0 47 57 47q59 0 59 -59q0 -47 -53 -47q-63 0 -63 59z" />
<glyph unicode="&#xd6;" d="M0 0v1442h854l-2 -1442h-852zM0 1866v7q0 50 56 110q59 63 120 67h7q57 0 120 -63q62 -64 66 -121v-3q0 -54 -64 -107q-67 -56 -129 -56q-45 0 -108.5 57.5t-67.5 108.5zM240 244h370v956h-370v-956zM371 1030q0 47 57 47q59 0 59 -59q0 -47 -53 -47q-63 0 -63 59z M531 1866v7q0 50 56 110q59 63 120 67h7q57 0 120 -63q62 -64 66 -121v-3q0 -54 -64 -107q-67 -56 -129 -56q-45 0 -108.5 57.5t-67.5 108.5z" />
<glyph unicode="&#xd7;" d="M0 1200l241 -30l173 -221l196 251l221 -30l-292 -380l306 -390l-275 30l-150 203l-179 -233l-231 30l287 369z" />
<glyph unicode="&#xd8;" d="M0 0v1442h854l-2 -1442h-852zM240 600l360 600h-360v-600zM324 244h286v524z" />
<glyph unicode="&#xd9;" d="M0 0v238h139l2 962h-141v213h381v-1169l235 -2v1200h238v-1534h-238v92h-616zM300 1976l207 60l131 -373l-209 -66z" />
<glyph unicode="&#xda;" d="M0 0v238h139l2 962h-141v213h381v-1169l235 -2v1200h238v-1534h-238v92h-616zM250 1653l131 373l207 -60l-129 -379z" />
<glyph unicode="&#xdb;" d="M0 0v238h139l2 962h-141v213h381v-1169l235 -2v1200h238v-1534h-238v92h-616zM100 1653l131 373l401 2l132 -373l-209 -65l-93 245h-59l-94 -248z" />
<glyph unicode="&#xdc;" d="M0 0v238h139l2 962h-141v213h381v-1169l235 -2v1200h238v-1534h-238v92h-616zM0 1866v7q0 50 56 110q59 63 120 67h7q57 0 120 -63q62 -64 66 -121v-3q0 -54 -64 -107q-67 -56 -129 -56q-45 0 -108.5 57.5t-67.5 108.5zM531 1866v7q0 50 56 110q59 63 120 67h7 q57 0 120 -63q62 -64 66 -121v-3q0 -54 -64 -107q-67 -56 -129 -56q-45 0 -108.5 57.5t-67.5 108.5z" />
<glyph unicode="&#xdd;" d="M0 1200v213h381l2 -762l125 -166h108v957h238v-1534h-238v334h-200l-275 348v610h-141zM250 1653l131 373l207 -60l-129 -379z" />
<glyph unicode="&#xde;" d="M0 800v246q66 0 90 8q43 14 55 64l2 402l195 -2l4 -403q43 -63 103 -75l405 2v-242l-225 -379h-226l201 379h-248v-892h-217l2 892h-141z" />
<glyph unicode="&#xdf;" d="M0 1200v242h854v-242l-235 -429l235 -533v-238h-354v223h131l-237 551l210 426h-248l-6 -1292h-211v424l2 868h-141z" />
<glyph unicode="&#xe0;" horiz-adv-x="851" d="M0 570q46 32 79.5 88t33.5 108v194h-113v170h14q83 0 102 86l158 -2q37 -52 85 -62l324 2l-1 -1154h-192v570h-204q4 -140 9 -282q16 -203 79 -288h-264v570h-110zM240 1581l166 48l104 -299l-167 -52zM275 822q0 -26 5 -57h214v195l-160 2q-59 -40 -59 -140z" />
<glyph unicode="&#xe1;" horiz-adv-x="851" d="M0 570q46 32 79.5 88t33.5 108v194h-113v170h14q83 0 102 86l158 -2q37 -52 85 -62l324 2l-1 -1154h-192v570h-204q4 -140 9 -282q16 -203 79 -288h-264v570h-110zM248 1322l105 299l165 -48l-103 -303zM275 822q0 -26 5 -57h214v195l-160 2q-59 -40 -59 -140z" />
<glyph unicode="&#xe2;" horiz-adv-x="851" d="M0 570q46 32 79.5 88t33.5 108v194h-113v170h14q83 0 102 86l158 -2q37 -52 85 -62l324 2l-1 -1154h-192v570h-204q4 -140 9 -282q16 -203 79 -288h-264v570h-110zM136 1322l105 299l321 1l105 -298l-167 -52l-74 196h-48l-75 -198zM275 822q0 -26 5 -57h214v195l-160 2 q-59 -40 -59 -140z" />
<glyph unicode="&#xe3;" horiz-adv-x="851" d="M0 570q46 32 79.5 88t33.5 108v194h-113v170h14q83 0 102 86l158 -2q37 -52 85 -62l324 2l-1 -1154h-192v570h-204q4 -140 9 -282q16 -203 79 -288h-264v570h-110zM120 1346l105 299l239 -75l22 60l165 -48l-103 -303l-167 53q3 21 3 34q0 38 -50 71l-47 -143zM275 822 q0 -26 5 -57h214v195l-160 2q-59 -40 -59 -140z" />
<glyph unicode="&#xe4;" horiz-adv-x="851" d="M0 570q46 32 79.5 88t33.5 108v194h-113v170h14q83 0 102 86l158 -2q37 -52 85 -62l324 2l-1 -1154h-192v570h-204q4 -140 9 -282q16 -203 79 -288h-264v570h-110zM0 1493v5q0 40 45 88q47 51 96 54h5q46 0 96 -50q50 -52 53 -97v-3q0 -43 -51 -85q-54 -45 -103 -45 q-36 0 -87 46t-54 87zM275 822q0 -26 5 -57h214v195l-160 2q-59 -40 -59 -140zM425 1493v5q0 40 45 88q47 51 96 54h5q46 0 96 -50q50 -52 53 -97v-3q0 -43 -51 -85q-54 -45 -103 -45q-36 0 -87 46t-54 87z" />
<glyph unicode="&#xe5;" horiz-adv-x="851" d="M0 570q46 32 79.5 88t33.5 108v194h-113v170h14q83 0 102 86l158 -2q37 -52 85 -62l324 2l-1 -1154h-192v570h-204q4 -140 9 -282q16 -203 79 -288h-264v570h-110zM224 1493v5q0 40 45 88q47 51 96 54h5q46 0 96 -50q50 -52 53 -97v-3q0 -43 -51 -85q-54 -45 -103 -45 q-36 0 -87 46t-54 87zM275 822q0 -26 5 -57h214v195l-160 2q-59 -40 -59 -140z" />
<glyph unicode="&#xe6;" horiz-adv-x="1220" d="M0 570q46 32 79.5 88t33.5 108v194h-113v170h14q83 0 102 86l158 -2q37 -52 85 -62h21v6q53 0 72 7q34 11 44 51l158 -2q37 -52 85 -62l324 2v-194l-349 2q-18 -12 -31 -32l-1 -165l381 1v-197l-381 1v-354q1 -10 3 -21l378 -1v-194h-573v570h-204q4 -140 9 -282 q16 -203 79 -288h-264v570h-110zM275 822q0 -26 5 -57h214v195l-160 2q-59 -40 -59 -140z" />
<glyph unicode="&#xe7;" horiz-adv-x="851" d="M0 -125l226 -1q29 49 82 126h-111l-197 602v552h192q42 9 57 24q9 10 15 38l157 -2q37 -52 85 -62l177 2v-194h-491v-321l136 -444h355v-2l-1 -193h-131l-218 -320h-333v195zM560 822q0 38 46 38q48 0 48 -47q0 -38 -43 -38q-51 0 -51 47z" />
<glyph unicode="&#xe8;" horiz-adv-x="851" d="M0 570q46 32 79.5 88t33.5 108v194h-113v198q53 0 72 7q34 11 44 51l158 -2q37 -52 85 -62l324 2v-194l-349 2q-59 -40 -59 -140q0 -26 5 -57l403 1v-197l-397 1q2 -84 2 -167q4 -123 17 -208l378 -1v-194h-573v570h-110zM240 1581l166 48l104 -299l-167 -52z" />
<glyph unicode="&#xe9;" horiz-adv-x="851" d="M0 570q46 32 79.5 88t33.5 108v194h-113v198q53 0 72 7q34 11 44 51l158 -2q37 -52 85 -62l324 2v-194l-349 2q-59 -40 -59 -140q0 -26 5 -57l403 1v-197l-397 1q2 -84 2 -167q4 -123 17 -208l378 -1v-194h-573v570h-110zM248 1322l105 299l165 -48l-103 -303z" />
<glyph unicode="&#xea;" horiz-adv-x="851" d="M0 570q46 32 79.5 88t33.5 108v194h-113v198q53 0 72 7q34 11 44 51l158 -2q37 -52 85 -62l324 2v-194l-349 2q-59 -40 -59 -140q0 -26 5 -57l403 1v-197l-397 1q2 -84 2 -167q4 -123 17 -208l378 -1v-194h-573v570h-110zM136 1322l105 299l321 1l105 -298l-167 -52 l-74 196h-48l-75 -198z" />
<glyph unicode="&#xeb;" horiz-adv-x="851" d="M0 570q46 32 79.5 88t33.5 108v194h-113v198q53 0 72 7q34 11 44 51l158 -2q37 -52 85 -62l324 2v-194l-349 2q-59 -40 -59 -140q0 -26 5 -57l403 1v-197l-397 1q2 -84 2 -167q4 -123 17 -208l378 -1v-194h-573v570h-110zM0 1493v5q0 40 45 88q47 51 96 54h5q46 0 96 -50 q50 -52 53 -97v-3q0 -43 -51 -85q-54 -45 -103 -45q-36 0 -87 46t-54 87zM425 1493v5q0 40 45 88q47 51 96 54h5q46 0 96 -50q50 -52 53 -97v-3q0 -43 -51 -85q-54 -45 -103 -45q-36 0 -87 46t-54 87z" />
<glyph unicode="&#xec;" horiz-adv-x="658" d="M0 0v190h111l2 770h-113v170q97 0 116 86l158 -2q37 -52 85 -62l134 2v-194l-159 2q-37 -27 -37 -380q0 -179 8 -387l188 -1v-194h-493zM104 1581l166 48l104 -299l-167 -52zM372 852q0 38 46 38q48 0 48 -48q0 -37 -44 -37q-50 0 -50 47z" />
<glyph unicode="&#xed;" horiz-adv-x="658" d="M0 0v190h111l2 770h-113v170q97 0 116 86l158 -2q37 -52 85 -62l134 2v-194l-159 2q-37 -27 -37 -380q0 -179 8 -387l188 -1v-194h-493zM128 1322l105 299l165 -48l-103 -303zM372 852q0 38 46 38q48 0 48 -48q0 -37 -44 -37q-50 0 -50 47z" />
<glyph unicode="&#xee;" horiz-adv-x="658" d="M-32 1322l105 299l321 1l105 -298l-167 -52l-74 196h-48l-75 -198zM0 0v190h111l2 770h-113v170q97 0 116 86l158 -2q37 -52 85 -62l134 2v-194l-159 2q-37 -27 -37 -380q0 -179 8 -387l188 -1v-194h-493zM372 852q0 38 46 38q48 0 48 -48q0 -37 -44 -37q-50 0 -50 47z " />
<glyph unicode="&#xef;" horiz-adv-x="658" d="M-128 1493v5q0 40 45 88q47 51 96 54h5q46 0 96 -50q50 -52 53 -97v-3q0 -43 -51 -85q-54 -45 -103 -45q-36 0 -87 46t-54 87zM0 0v190h111l2 770h-113v170q97 0 116 86l158 -2q37 -52 85 -62l134 2v-194l-159 2q-37 -27 -37 -380q0 -179 8 -387l188 -1v-194h-493z M297 1493v5q0 40 45 88q47 51 96 54h5q46 0 96 -50q50 -52 53 -97v-3q0 -43 -51 -85q-54 -45 -103 -45q-36 0 -87 46t-54 87zM372 852q0 38 46 38q48 0 48 -48q0 -37 -44 -37q-50 0 -50 47z" />
<glyph unicode="&#xf0;" horiz-adv-x="851" d="M0 0v175q11 -1 21 -1q90 0 90 92l1 303h-112q84 93 110 197h2l1 194h-113v194h602l81 -964v-190h-326q-55 -18 -72 -74h-174q-1 11 -1 29q0 19 1 45q-40 -1 -68 -1q-27 0 -43 1zM285 178h220l-71 782h-149v-194h93v-197h-93v-391z" />
<glyph unicode="&#xf1;" horiz-adv-x="851" d="M0 960v170q116 10 116 86l158 -2q37 -52 85 -62l324 2l-1 -1154h-189l1 960l-160 2q-59 -40 -59 -140q0 -26 5 -57v-282q5 -191 12 -239q18 -157 82 -244h-264l3 960h-113zM120 1346l105 299l239 -75l22 60l165 -48l-103 -303l-167 53q3 21 3 34q0 38 -50 71l-47 -143z " />
<glyph unicode="&#xf2;" horiz-adv-x="851" d="M0 0v1154h683l-1 -1154h-682zM192 195h296v765h-296v-765zM240 1581l166 48l104 -299l-167 -52zM297 824q0 38 45 38q48 0 48 -48q0 -37 -43 -37q-50 0 -50 47z" />
<glyph unicode="&#xf3;" horiz-adv-x="851" d="M0 0v1154h683l-1 -1154h-682zM192 195h296v765h-296v-765zM200 1322l105 299l165 -48l-103 -303zM297 824q0 38 45 38q48 0 48 -48q0 -37 -43 -37q-50 0 -50 47z" />
<glyph unicode="&#xf4;" horiz-adv-x="851" d="M0 0v1154h683l-1 -1154h-682zM80 1322l105 299l321 1l105 -298l-167 -52l-74 196h-48l-75 -198zM192 195h296v765h-296v-765zM297 824q0 38 45 38q48 0 48 -48q0 -37 -43 -37q-50 0 -50 47z" />
<glyph unicode="&#xf5;" horiz-adv-x="851" d="M0 0v1154h683l-1 -1154h-682zM120 1346l105 299l239 -75l22 60l165 -48l-103 -303l-167 53q3 21 3 34q0 38 -50 71l-47 -143zM192 195h296v765h-296v-765zM297 824q0 38 45 38q48 0 48 -48q0 -37 -43 -37q-50 0 -50 47z" />
<glyph unicode="&#xf6;" horiz-adv-x="851" d="M0 0v1154h683l-1 -1154h-682zM0 1493v5q0 40 45 88q47 51 96 54h5q46 0 96 -50q50 -52 53 -97v-3q0 -43 -51 -85q-54 -45 -103 -45q-36 0 -87 46t-54 87zM192 195h296v765h-296v-765zM297 824q0 38 45 38q48 0 48 -48q0 -37 -43 -37q-50 0 -50 47zM425 1493v5q0 40 45 88 q47 51 96 54h5q46 0 96 -50q50 -52 53 -97v-3q0 -43 -51 -85q-54 -45 -103 -45q-36 0 -87 46t-54 87z" />
<glyph unicode="&#xf7;" d="M0 711q135 116 168 247h674v-247h-842zM312 1186v7q0 50 56 110q59 63 120 67h7q57 0 120 -63q62 -64 66 -121v-3q0 -54 -64 -107q-67 -56 -129 -56q-45 0 -108.5 57.5t-67.5 108.5zM314 476v7q0 50 56 110q59 63 120 67h7q57 0 120 -63q62 -64 66 -121v-3 q0 -54 -64 -107q-67 -56 -129 -56q-45 0 -108.5 57.5t-67.5 108.5z" />
<glyph unicode="&#xf8;" horiz-adv-x="851" d="M0 0v1154h683l-1 -1154h-682zM192 480l288 480h-288v-480zM259 195h229v419z" />
<glyph unicode="&#xf9;" horiz-adv-x="851" d="M0 0v190h111l2 770h-113v170h305v-935l188 -1v960h190v-1228h-190v74h-493zM240 1581l166 48l104 -299l-167 -52z" />
<glyph unicode="&#xfa;" horiz-adv-x="851" d="M0 0v190h111l2 770h-113v170h305v-935l188 -1v960h190v-1228h-190v74h-493zM200 1322l105 299l165 -48l-103 -303z" />
<glyph unicode="&#xfb;" horiz-adv-x="851" d="M0 0v190h111l2 770h-113v170h305v-935l188 -1v960h190v-1228h-190v74h-493zM80 1322l105 299l321 1l105 -298l-167 -52l-74 196h-48l-75 -198z" />
<glyph unicode="&#xfc;" horiz-adv-x="851" d="M0 0v190h111l2 770h-113v170h305v-935l188 -1v960h190v-1228h-190v74h-493zM0 1493v5q0 40 45 88q47 51 96 54h5q46 0 96 -50q50 -52 53 -97v-3q0 -43 -51 -85q-54 -45 -103 -45q-36 0 -87 46t-54 87zM425 1493v5q0 40 45 88q47 51 96 54h5q46 0 96 -50q50 -52 53 -97v-3 q0 -43 -51 -85q-54 -45 -103 -45q-36 0 -87 46t-54 87z" />
<glyph unicode="&#xfd;" horiz-adv-x="851" d="M0 960v170h305l1 -609l100 -133h87v766h190v-1228h-190v268h-160l-220 278v488h-113zM200 1322l105 299l165 -48l-103 -303z" />
<glyph unicode="&#xfe;" horiz-adv-x="851" d="M0 640v197q53 0 72 6q34 11 44 51l1 322l157 -2l2 -322q35 -50 83 -60l324 2v-194l-180 -303h-181l161 303h-198v-714h-174l2 714h-113z" />
<glyph unicode="&#xff;" horiz-adv-x="851" d="M0 960v170h305l1 -609l100 -133h87v766h190v-1228h-190v268h-160l-220 278v488h-113zM0 1493v5q0 40 45 88q47 51 96 54h5q46 0 96 -50q50 -52 53 -97v-3q0 -43 -51 -85q-54 -45 -103 -45q-36 0 -87 46t-54 87zM425 1493v5q0 40 45 88q47 51 96 54h5q46 0 96 -50 q50 -52 53 -97v-3q0 -43 -51 -85q-54 -45 -103 -45q-36 0 -87 46t-54 87z" />
<glyph unicode="&#x2c6;" horiz-adv-x="829" d="M0 1653l131 373l401 2l132 -373l-209 -65l-93 245h-59l-94 -248z" />
<glyph unicode="&#x2dc;" horiz-adv-x="829" d="M0 1673l131 373l299 -94l27 75l207 -59l-129 -379l-209 66q4 26 4 43q0 47 -62 88l-59 -179z" />
<glyph unicode="&#x2000;" horiz-adv-x="1028" />
<glyph unicode="&#x2001;" horiz-adv-x="2056" />
<glyph unicode="&#x2002;" horiz-adv-x="1028" />
<glyph unicode="&#x2003;" horiz-adv-x="2056" />
<glyph unicode="&#x2004;" horiz-adv-x="685" />
<glyph unicode="&#x2005;" horiz-adv-x="514" />
<glyph unicode="&#x2006;" horiz-adv-x="342" />
<glyph unicode="&#x2007;" horiz-adv-x="342" />
<glyph unicode="&#x2008;" horiz-adv-x="257" />
<glyph unicode="&#x2009;" horiz-adv-x="411" />
<glyph unicode="&#x200a;" horiz-adv-x="114" />
<glyph unicode="&#x2010;" d="M0 711q135 116 168 247h674v-247h-842z" />
<glyph unicode="&#x2011;" d="M0 711q135 116 168 247h674v-247h-842z" />
<glyph unicode="&#x2012;" d="M0 711q135 116 168 247h674v-247h-842z" />
<glyph unicode="&#x2013;" horiz-adv-x="1108" d="M56 419v120h996v-120h-996z" />
<glyph unicode="&#x2014;" horiz-adv-x="2048" d="M0 419v120h2048v-120h-2048z" />
<glyph unicode="&#x2018;" horiz-adv-x="485" d="M0 1466l207 60l131 -373l-209 -66z" />
<glyph unicode="&#x2019;" horiz-adv-x="485" d="M0 1153l131 373l207 -60l-129 -379z" />
<glyph unicode="&#x201a;" horiz-adv-x="598" d="M0 -70l131 373l207 -59l-129 -379z" />
<glyph unicode="&#x201c;" horiz-adv-x="800" d="M0 1466l207 60l131 -373l-209 -66zM300 1466l207 60l131 -373l-209 -66z" />
<glyph unicode="&#x201d;" horiz-adv-x="800" d="M0 1153l131 373l207 -60l-129 -379zM300 1153l131 373l207 -60l-129 -379z" />
<glyph unicode="&#x201e;" horiz-adv-x="1000" d="M0 -70l131 373l207 -59l-129 -379zM400 -70l131 373l207 -59l-129 -379z" />
<glyph unicode="&#x2022;" horiz-adv-x="1024" d="M216 718q0 123 87 209t210 86q122 0 208.5 -86.5t86.5 -208.5t-87.5 -209.5t-209.5 -87.5q-123 0 -209 87t-86 210z" />
<glyph unicode="&#x2026;" horiz-adv-x="1600" d="M14 166v7q0 50 56 110q59 63 120 67h7q57 0 120 -63q62 -64 66 -121v-3q0 -54 -64 -107q-67 -56 -129 -56q-45 0 -108.5 57.5t-67.5 108.5zM500 166v7q0 50 56 110q59 63 120 67h7q57 0 120 -63q62 -64 66 -121v-3q0 -54 -64 -107q-67 -56 -129 -56q-45 0 -108.5 57.5 t-67.5 108.5zM1000 166v7q0 50 56 110q59 63 120 67h7q57 0 120 -63q62 -64 66 -121v-3q0 -54 -64 -107q-67 -56 -129 -56q-45 0 -108.5 57.5t-67.5 108.5z" />
<glyph unicode="&#x202f;" horiz-adv-x="411" />
<glyph unicode="&#x2039;" d="M0 463v342l362 295h480v-248h-420l-176 -141h596v-248h-842z" />
<glyph unicode="&#x203a;" d="M0 463v248h596l-176 141h-420v248h479l363 -295v-342h-842z" />
<glyph unicode="&#x205f;" horiz-adv-x="514" />
<glyph unicode="&#x20ac;" d="M0 493q57 39 99 109.5t42 135.5h24l-5 14v101h-160q57 39 99 109.5t42 135.5h19v344h240q53 12 71 31q11 12 19 47l196 -2q47 -66 107 -78l61 2v-242h-454v-104l454 2v-247l-454 2v-54l19 -63l435 2v-247l-360 1l76 -248h284l-2 -244h-446l-161 493h-245z" />
<glyph unicode="&#x2122;" horiz-adv-x="1169" d="M0 1350v121h100q26 6 35 16q6 6 10 23l98 -1q23 -33 53 -39l131 1v-121l-146 1q-37 -24 -37 -87q0 -16 3 -36l4 -121q2 -88 5 -177q10 -127 49 -180h-161l-1 600h-143zM330 1262q0 24 29 24t29 -30q0 -23 -26 -23q-32 0 -32 29zM333 1150q0 23 29 23t29 -30 q0 -23 -26 -23q-32 0 -32 30zM500 750v718h179q5 -1 9 -1q14 0 25 12q9 9 9 25q0 3 -1 6l99 -1q2 -26 13 -33q10 -6 33 -6h7l203 1l-1 -721h-116l-1 600l-100 1q-37 -24 -37 -87q0 -16 3 -36v-176q3 -119 7 -149q11 -98 51 -153h-162l-1 600h-101v-600h-118z" />
<glyph unicode="&#x25fc;" horiz-adv-x="1155" d="M0 0v1155h1155v-1155h-1155z" />
</font>
</defs>
</svg>
